<svg xmlns="http://www.w3.org/2000/svg" version="1.1" fill="white" viewBox="9.18 6.55 81.63 86.9">
 <path d="m68.422 93.422c-0.29688 0-0.59375-0.097656-0.83594-0.30078-0.41406-0.33984-10.188-8.4141-16.43-17.371-0.41406-0.59766-0.26953-1.418 0.32812-1.832 0.59766-0.41406 1.418-0.26953 1.832 0.32812 5 7.1719 12.594 13.969 15.105 16.133 3.8594-3.3281 19.738-17.617 19.738-27.223 0-5.0781-4.1328-9.2109-9.2109-9.2109s-9.2109 4.1328-9.2109 9.2109c0 0.72656-0.58984 1.3164-1.3164 1.3164s-1.3164-0.58984-1.3164-1.3164c0-5.0781-4.1328-9.2109-9.2109-9.2109s-9.2109 4.1328-9.2109 9.2109c0 1.0664 0.20703 2.2578 0.62109 3.5469 0.22266 0.69141-0.16016 1.4336-0.85156 1.6562-0.69531 0.22266-1.4336-0.16016-1.6562-0.85156-0.49609-1.5469-0.74609-3.0117-0.74609-4.3477 0-6.5312 5.3125-11.844 11.844-11.844 4.5781 0 8.5547 2.6094 10.527 6.4219 1.9688-3.8086 5.9492-6.4219 10.527-6.4219 6.5312 0 11.844 5.3125 11.844 11.844 0 12.113-20.652 29.242-21.531 29.965-0.24219 0.19922-0.53906 0.30078-0.83594 0.30078z"/>
 <path d="m65.789 78.949h-0.019531c-0.54688-0.007813-1.0273-0.35156-1.2148-0.86719l-3.9727-10.926-0.23828 0.71484c-0.89844 2.6914-3.4062 4.4961-6.2422 4.4961h-15.945c-0.72656 0-1.3164-0.58984-1.3164-1.3164 0-0.72656 0.58984-1.3164 1.3164-1.3164h15.945c1.7031 0 3.207-1.0859 3.7461-2.6992l1.4336-4.2969c0.17578-0.53125 0.67188-0.89062 1.2305-0.89844h0.019531c0.55078 0 1.0469 0.34375 1.2383 0.86719l4.0859 11.234 0.027343-0.070312c1.0039-2.5117 3.4023-4.1367 6.1094-4.1367h3.0156c0.72656 0 1.3164 0.58984 1.3164 1.3164 0 0.72656-0.58984 1.3164-1.3164 1.3164h-3.0156c-1.625 0-3.0625 0.97266-3.6641 2.4805l-1.3086 3.2695c-0.19922 0.5-0.68359 0.82812-1.2227 0.82812z"/>
 <path d="m64.473 13.156c0-3.6328-2.9492-6.5781-6.5781-6.5781h-42.105c-3.6328 0-6.5781 2.9492-6.5781 6.5781v60.527c0 3.6328 2.9492 6.5781 6.5781 6.5781 0 3.6328 2.9492 6.5781 6.5781 6.5781h34.645c-2.7109-2.8164-5.6055-6.1328-8.0117-9.5781-0.48828-0.69922-0.71094-1.4883-0.69922-2.2617h-10.145c-2.1719 0-3.9492-1.7773-3.9492-3.9492s1.7773-3.9492 3.9492-3.9492h5.7891c-0.34375-1.3672-0.52734-2.6992-0.52734-3.9492 0-7.9883 6.4883-14.473 14.473-14.473 4.0508 0 7.8281 1.6719 10.527 4.5391 0.78906-0.84375 1.6719-1.5781 2.6328-2.1992v-31.281c0-3.6328-2.9492-6.5781-6.5781-6.5781zm-38.156 61.844h-1.3164c-0.72266 0-1.3164-0.59375-1.3164-1.3164s0.59375-1.3164 1.3164-1.3164h1.3164c0.72266 0 1.3164 0.59375 1.3164 1.3164s-0.59375 1.3164-1.3164 1.3164zm0-3.9492h-1.3164c-0.72266 0-1.3164-0.59375-1.3164-1.3164s0.59375-1.3164 1.3164-1.3164h1.3164c0.72266 0 1.3164 0.59375 1.3164 1.3164s-0.59375 1.3164-1.3164 1.3164zm0-3.9453h-1.3164c-0.72266 0-1.3164-0.59375-1.3164-1.3164 0-0.72266 0.59375-1.3164 1.3164-1.3164h1.3164c0.72266 0 1.3164 0.59375 1.3164 1.3164 0 0.72266-0.59375 1.3164-1.3164 1.3164zm1.3164-3.9492h-2.6328c-0.72266 0-1.3164-0.59375-1.3164-1.3164s0.59375-1.3164 1.3164-1.3164h2.6328c0.72266 0 1.3164 0.59375 1.3164 1.3164s-0.59375 1.3164-1.3164 1.3164zm1.3164-3.9453h-3.9492c-0.72266 0-1.3164-0.59375-1.3164-1.3164 0-0.72266 0.59375-1.3164 1.3164-1.3164h3.9492c0.72266 0 1.3164 0.59375 1.3164 1.3164 0 0.72266-0.59375 1.3164-1.3164 1.3164zm3.9453-3.9492h-7.8945c-0.72266 0-1.3164-0.59375-1.3164-1.3164 0-0.72266 0.59375-1.3164 1.3164-1.3164h7.8945c0.72266 0 1.3164 0.59375 1.3164 1.3164 0 0.72266-0.59375 1.3164-1.3164 1.3164zm6.5781-3.9453h-14.473c-0.72266 0-1.3164-0.59375-1.3164-1.3164s0.59375-1.3164 1.3164-1.3164h14.473c0.72266 0 1.3164 0.59375 1.3164 1.3164s-0.59375 1.3164-1.3164 1.3164zm7.8945-17.105c0 2.1719-1.7773 3.9492-3.9492 3.9492h-2.6328v2.6328c0 2.1719-1.7773 3.9492-3.9492 3.9492h-2.6328c-2.1719 0-3.9492-1.7773-3.9492-3.9492v-2.6328h-2.6328c-2.1719 0-3.9492-1.7773-3.9492-3.9492v-2.6328c0-2.1719 1.7773-3.9492 3.9492-3.9492h2.6328v-2.6328c0-2.1719 1.7773-3.9492 3.9492-3.9492h2.6328c2.1719 0 3.9492 1.7773 3.9492 3.9492v2.6328h2.6328c2.1719 0 3.9492 1.7773 3.9492 3.9492zm-25-21.055c-3.6328 0-6.5781 2.9492-6.5781 6.5781v57.895c-2.1719 0-3.9492-1.7773-3.9492-3.9492l0.003906-60.523c0-2.1719 1.7773-3.9492 3.9492-3.9492h42.105c2.1719 0 3.9492 1.7773 3.9492 3.9492zm39.477 31.582h-3.9492c-0.72266 0-1.3164-0.59375-1.3164-1.3164s0.59375-1.3164 1.3164-1.3164h3.9492c0.72266 0 1.3164 0.59375 1.3164 1.3164s-0.59375 1.3164-1.3164 1.3164zm0-3.9492h-3.9492c-0.72266 0-1.3164-0.59375-1.3164-1.3164s0.59375-1.3164 1.3164-1.3164h3.9492c0.72266 0 1.3164 0.59375 1.3164 1.3164s-0.59375 1.3164-1.3164 1.3164zm0-3.9453h-3.9492c-0.72266 0-1.3164-0.59375-1.3164-1.3164s0.59375-1.3164 1.3164-1.3164h3.9492c0.72266 0 1.3164 0.59375 1.3164 1.3164s-0.59375 1.3164-1.3164 1.3164zm0-3.9492h-3.9492c-0.72266 0-1.3164-0.59375-1.3164-1.3164s0.59375-1.3164 1.3164-1.3164h3.9492c0.72266 0 1.3164 0.59375 1.3164 1.3164s-0.59375 1.3164-1.3164 1.3164zm0-3.9453h-3.9492c-0.72266 0-1.3164-0.59375-1.3164-1.3164 0-0.72266 0.59375-1.3164 1.3164-1.3164h3.9492c0.72266 0 1.3164 0.59375 1.3164 1.3164 0 0.72266-0.59375 1.3164-1.3164 1.3164zm0-3.9492h-7.8945c-0.72266 0-1.3164-0.59375-1.3164-1.3164s0.59375-1.3164 1.3164-1.3164h7.8945c0.72266 0 1.3164 0.59375 1.3164 1.3164s-0.59375 1.3164-1.3164 1.3164z"/>
 <path d="m44.738 34.211v-2.6328c0-0.72266-0.59375-1.3164-1.3164-1.3164h-3.9492c-0.72266 0-1.3164-0.59375-1.3164-1.3164v-3.9492c0-0.72266-0.59375-1.3164-1.3164-1.3164h-2.6328c-0.72266 0-1.3164 0.59375-1.3164 1.3164v3.9492c0 0.72266-0.59375 1.3164-1.3164 1.3164h-3.9492c-0.72266 0-1.3164 0.59375-1.3164 1.3164v2.6328c0 0.72266 0.59375 1.3164 1.3164 1.3164h3.9492c0.72266 0 1.3164 0.59375 1.3164 1.3164v3.9492c0 0.72266 0.59375 1.3164 1.3164 1.3164h2.6328c0.72266 0 1.3164-0.59375 1.3164-1.3164v-3.9492c0-0.72266 0.59375-1.3164 1.3164-1.3164h3.9492c0.72266 0 1.3164-0.59375 1.3164-1.3164z"/></svg>